<svg xmlns="http://www.w3.org/2000/svg" width="720" height="720" viewBox="0 0 720 720">
  <defs>
    <style>
      :root {
        --accent: #2cf1b0;
        --ink: #0b0f0e;
      }
      .word-strong { font-family: "Space Grotesk", "Sora", sans-serif; font-size: 140px; font-weight: 600; letter-spacing: 2px; }
      .word-mono { font-family: "IBM Plex Mono", "JetBrains Mono", monospace; font-size: 96px; font-weight: 500; }
    </style>
    <g id="mark">
      <g fill="var(--accent)">
        <rect x="32" y="92" width="22" height="8"/>
        <rect x="24" y="100" width="8" height="24"/>
        <rect x="32" y="124" width="22" height="8"/>
        <rect x="24" y="132" width="8" height="24"/>
        <rect x="54" y="132" width="8" height="24"/>
        <rect x="32" y="156" width="22" height="8"/>

        <rect x="78" y="92" width="22" height="8"/>
        <rect x="70" y="100" width="8" height="24"/>
        <rect x="100" y="100" width="8" height="24"/>
        <rect x="70" y="132" width="8" height="24"/>
        <rect x="100" y="132" width="8" height="24"/>
        <rect x="78" y="156" width="22" height="8"/>

        <rect x="156" y="92" width="22" height="8"/>
        <rect x="148" y="100" width="8" height="24"/>
        <rect x="156" y="124" width="22" height="8"/>
        <rect x="148" y="132" width="8" height="24"/>
        <rect x="178" y="132" width="8" height="24"/>
        <rect x="156" y="156" width="22" height="8"/>

        <rect x="202" y="92" width="22" height="8"/>
        <rect x="194" y="100" width="8" height="24"/>
        <rect x="224" y="100" width="8" height="24"/>
        <rect x="194" y="132" width="8" height="24"/>
        <rect x="224" y="132" width="8" height="24"/>
        <rect x="202" y="156" width="22" height="8"/>
      </g>
      <g stroke="var(--accent)" stroke-width="8" stroke-linecap="round">
        <line x1="116" y1="105" x2="140" y2="151"/>
        <line x1="116" y1="151" x2="140" y2="105"/>
      </g>
    </g>
  </defs>
  <rect width="720" height="720" fill="none"/>
  <g transform="translate(230 120) scale(1.05)">
    <use href="#mark"/>
  </g>
  <text class="word-strong" x="360" y="500" fill="var(--ink)" text-anchor="middle">6060</text>
  <text class="word-mono" x="360" y="585" fill="var(--ink)" text-anchor="middle">live</text>
</svg>
